<?xml version="1.0" encoding="UTF-8"?>
<svg width="40" height="40" version="1.1" viewBox="0 0 40 40" xmlns="http://www.w3.org/2000/svg">
 <g fill="none" stroke="#6C707E" stroke-width="2.5">
  <path d="m20 4c-8.8366 0-16 7.1634-16 16 0 8.8366 7.1634 16 16 16 8.8366 0 16-7.1634 16-16 0-8.8366-7.1634-16-16-16zm0 2.4615c7.4771 0 13.538 6.0613 13.538 13.538 0 7.4771-6.0613 13.538-13.538 13.538-7.4771 0-13.538-6.0613-13.538-13.538 0-7.4771 6.0613-13.538 13.538-13.538z"/>
  <path d="m20 11.077v8.6154m0 0 6.1538-6.1538m-6.1538 6.1538-6.1538-6.1538" stroke-linecap="round" stroke-linejoin="round"/>
  <path d="m20 28.923v-8.6154m0 0 6.1538 6.1538m-6.1538-6.1538-6.1538 6.1538" stroke-linecap="round" stroke-linejoin="round"/>
 </g>
</svg>
